<svg width="39" height="38" viewBox="0 0 39 38" fill="none" xmlns="http://www.w3.org/2000/svg">
<path d="M17.415 0.989891C18.7605 -0.156758 20.7395 -0.156758 22.085 0.989892L24.986 3.46205C25.5625 3.95342 26.2794 4.25037 27.0346 4.31063L30.834 4.61382C32.5962 4.75445 33.9956 6.15381 34.1362 7.91604L34.4394 11.7154C34.4996 12.4706 34.7966 13.1875 35.288 13.764L37.7601 16.665C38.9068 18.0105 38.9068 19.9895 37.7601 21.335L35.288 24.236C34.7966 24.8125 34.4996 25.5294 34.4394 26.2846L34.1362 30.084C33.9956 31.8462 32.5962 33.2456 30.834 33.3862L27.0346 33.6894C26.2794 33.7496 25.5625 34.0466 24.986 34.538L22.085 37.0101C20.7395 38.1568 18.7605 38.1568 17.415 37.0101L14.514 34.538C13.9375 34.0466 13.2206 33.7496 12.4654 33.6894L8.66604 33.3862C6.90381 33.2456 5.50445 31.8462 5.36382 30.084L5.06063 26.2846C5.00037 25.5294 4.70342 24.8125 4.21205 24.236L1.73989 21.335C0.593242 19.9895 0.593242 18.0105 1.73989 16.665L4.21205 13.764C4.70342 13.1875 5.00037 12.4706 5.06063 11.7154L5.36382 7.91604C5.50445 6.15381 6.90381 4.75445 8.66604 4.61382L12.4654 4.31063C13.2206 4.25037 13.9375 3.95342 14.514 3.46205L17.415 0.989891Z" fill="white" fill-opacity="0.2"/>
</svg>
