<svg width="62" height="62" viewBox="0 0 62 62" fill="none" xmlns="http://www.w3.org/2000/svg">
<g clip-path="url(#clip0_201_637)">
<path d="M0.014122 42.6556C0.014122 42.6623 0.0133953 42.6689 0.0133953 42.6756C0.0133953 50.761 6.56779 57.3154 14.6532 57.3154C22.7387 57.3154 29.293 50.7612 29.293 42.6756C29.293 34.59 22.738 28.0357 14.6531 28.0357C12.9914 28.0357 11.4008 28.3254 9.91246 28.8358C13.2062 9.94068 27.9408 -2.24471 14.282 7.78413C-0.86375 18.905 -0.00282478 42.2289 0.014122 42.6556Z" fill="#6F00EB"/>
<path d="M46.8602 28.0359C45.1985 28.0359 43.6078 28.3255 42.1188 28.8359C45.4133 9.9408 60.148 -2.24458 46.489 7.78425C31.3433 18.905 32.2041 42.2289 32.2211 42.6556C32.2211 42.6623 32.2204 42.6689 32.2204 42.6756C32.2204 50.761 38.7747 57.3154 46.8602 57.3154C54.9457 57.3154 61.5 50.7612 61.5 42.6756C61.5 34.59 54.945 28.0359 46.8602 28.0359Z" fill="#6F00EB"/>
</g>
<defs>
<clipPath id="clip0_201_637">
<rect width="61.5" height="61.5" fill="white" transform="matrix(-1 0 0 -1 61.5 61.5)"/>
</clipPath>
</defs>
</svg>
